<svg width="73" height="39" viewBox="0 0 73 39" fill="none" xmlns="http://www.w3.org/2000/svg">
<rect x="16.301" y="16.335" width="2.24808" height="19.4757" rx="1.12404" fill="#345375"/>
<rect x="53.6189" y="16.335" width="2.24808" height="19.4757" rx="1.12404" fill="#345375"/>
<path d="M16.301 16.3357C29.1186 12.8994 42.6102 12.8615 55.4469 16.2256L55.8673 16.3357V18.3332L55.4373 18.242C42.5322 15.5042 29.1932 15.5353 16.301 18.3332V16.3357Z" fill="#345375"/>
<path d="M36.0554 30.7654C41.277 30.7654 46.0838 31.2783 49.5574 32.0925C51.3016 32.5014 52.6552 32.9737 53.5486 33.4636C53.9957 33.7088 54.2814 33.9334 54.4441 34.1169C54.6015 34.2947 54.5994 34.3805 54.5994 34.3855C54.5994 34.3915 54.6004 34.4766 54.4441 34.6531C54.2814 34.8367 53.9959 35.062 53.5486 35.3074C52.6552 35.7973 51.3016 36.2696 49.5574 36.6785C46.0838 37.4927 41.277 38.0056 36.0554 38.0056C30.8339 38.0056 26.0271 37.4927 22.5535 36.6785C20.8092 36.2696 19.4556 35.7973 18.5623 35.3074C18.115 35.062 17.8294 34.8367 17.6667 34.6531C17.5105 34.4766 17.5115 34.3915 17.5115 34.3855C17.5115 34.3805 17.5093 34.2947 17.6667 34.1169C17.8295 33.9333 18.1151 33.7089 18.5623 33.4636C19.4556 32.9737 20.8092 32.5014 22.5535 32.0925C26.0271 31.2783 30.8339 30.7654 36.0554 30.7654Z" stroke="#345375" stroke-width="2"/>
<mask id="path-5-inside-1_1_478" fill="white">
<path d="M35.4806 0.136755C36.0206 -0.0462501 36.5978 -0.0452426 37.1378 0.137731L58.4054 7.34672L70.6095 11.4844C73.2831 12.3914 73.2611 16.5314 70.7081 17.4805L70.4542 17.5625L53.6193 22.128V19.9639L70.004 15.5205C70.9385 15.2671 70.9767 13.8063 70.0568 13.4942L57.8536 9.35746L36.5851 2.14847C36.4052 2.08759 36.2132 2.08656 36.0333 2.1475L2.56262 13.4942C1.64245 13.8061 1.6798 15.2681 2.61438 15.5215L18.5489 19.8428V22.0049L2.16516 17.5625C-0.638251 16.8019 -0.750221 12.4204 2.00988 11.4844L35.4806 0.136755Z"/>
</mask>
<path d="M35.4806 0.136755C36.0206 -0.0462501 36.5978 -0.0452426 37.1378 0.137731L58.4054 7.34672L70.6095 11.4844C73.2831 12.3914 73.2611 16.5314 70.7081 17.4805L70.4542 17.5625L53.6193 22.128V19.9639L70.004 15.5205C70.9385 15.2671 70.9767 13.8063 70.0568 13.4942L57.8536 9.35746L36.5851 2.14847C36.4052 2.08759 36.2132 2.08656 36.0333 2.1475L2.56262 13.4942C1.64245 13.8061 1.6798 15.2681 2.61438 15.5215L18.5489 19.8428V22.0049L2.16516 17.5625C-0.638251 16.8019 -0.750221 12.4204 2.00988 11.4844L35.4806 0.136755Z" fill="#345375"/>
<path d="M35.4806 0.136755L35.1596 -0.810335L35.1595 -0.810297L35.4806 0.136755ZM37.1378 0.137731L37.4588 -0.809339L37.4587 -0.809376L37.1378 0.137731ZM58.4054 7.34672L58.7265 6.39967L58.7264 6.39964L58.4054 7.34672ZM70.6095 11.4844L70.9308 10.5374L70.9306 10.5374L70.6095 11.4844ZM70.7081 17.4805L71.0156 18.4321L71.0362 18.4254L71.0566 18.4178L70.7081 17.4805ZM70.4542 17.5625L70.716 18.5277L70.739 18.5214L70.7617 18.5141L70.4542 17.5625ZM53.6193 22.128H52.6193V23.4353L53.881 23.0931L53.6193 22.128ZM53.6193 19.9639L53.3575 18.9988L52.6193 19.199V19.9639H53.6193ZM70.004 15.5205L70.2658 16.4857L70.2658 16.4857L70.004 15.5205ZM70.0568 13.4942L70.378 12.5472L70.3778 12.5471L70.0568 13.4942ZM57.8536 9.35746L58.1747 8.41039L58.1746 8.41038L57.8536 9.35746ZM36.5851 2.14847L36.9061 1.2014L36.9057 1.20126L36.5851 2.14847ZM36.0333 2.1475L35.7125 1.20037L35.7123 1.20044L36.0333 2.1475ZM2.56262 13.4942L2.24156 12.5471L2.24156 12.5471L2.56262 13.4942ZM2.61438 15.5215L2.35263 16.4867L2.35264 16.4867L2.61438 15.5215ZM18.5489 19.8428H19.5489V19.0779L18.8107 18.8777L18.5489 19.8428ZM18.5489 22.0049L18.2873 22.9701L19.5489 23.3122V22.0049H18.5489ZM2.16516 17.5625L1.9033 18.5276L1.90346 18.5277L2.16516 17.5625ZM2.00988 11.4844L1.6888 10.5374L1.68875 10.5374L2.00988 11.4844ZM35.4806 0.136755L35.8016 1.08384C36.1322 0.971794 36.4838 0.97198 36.8169 1.08484L37.1378 0.137731L37.4587 -0.809376C36.7118 -1.06247 35.909 -1.06429 35.1596 -0.810335L35.4806 0.136755ZM37.1378 0.137731L36.8168 1.0848L58.0844 8.29379L58.4054 7.34672L58.7264 6.39964L37.4588 -0.809339L37.1378 0.137731ZM58.4054 7.34672L58.0843 8.29377L70.2884 12.4315L70.6095 11.4844L70.9306 10.5374L58.7265 6.39967L58.4054 7.34672ZM70.6095 11.4844L70.2882 12.4314C71.1277 12.7162 71.6116 13.5241 71.6188 14.4743C71.6261 15.4334 71.1457 16.251 70.3597 16.5432L70.7081 17.4805L71.0566 18.4178C72.8235 17.761 73.6307 16.034 73.6188 14.4591C73.6068 12.8753 72.7649 11.1597 70.9308 10.5374L70.6095 11.4844ZM70.7081 17.4805L70.4007 16.5289L70.1468 16.611L70.4542 17.5625L70.7617 18.5141L71.0156 18.4321L70.7081 17.4805ZM70.4542 17.5625L70.1925 16.5974L53.3575 21.1628L53.6193 22.128L53.881 23.0931L70.716 18.5277L70.4542 17.5625ZM53.6193 22.128H54.6193V19.9639H53.6193H52.6193V22.128H53.6193ZM53.6193 19.9639L53.881 20.929L70.2658 16.4857L70.004 15.5205L69.7423 14.5554L53.3575 18.9988L53.6193 19.9639ZM70.004 15.5205L70.2658 16.4857C71.265 16.2147 71.7057 15.313 71.7255 14.5554C71.7452 13.7978 71.3533 12.8781 70.378 12.5472L70.0568 13.4942L69.7355 14.4412C69.7361 14.4414 69.7343 14.4408 69.7309 14.4389C69.7275 14.437 69.7239 14.4346 69.7203 14.4317C69.7129 14.4255 69.7104 14.421 69.7112 14.4224C69.7123 14.4242 69.7166 14.4323 69.7205 14.4476C69.7243 14.4631 69.7267 14.4822 69.7262 14.5033C69.7256 14.5244 69.7222 14.543 69.7178 14.5574C69.7134 14.5717 69.7091 14.5783 69.7088 14.5788C69.7087 14.5789 69.7097 14.5774 69.7121 14.575C69.7145 14.5725 69.7179 14.5694 69.7223 14.5661C69.7268 14.5629 69.7313 14.5602 69.7356 14.5581C69.7398 14.5561 69.7423 14.5554 69.7423 14.5554L70.004 15.5205ZM70.0568 13.4942L70.3778 12.5471L58.1747 8.41039L57.8536 9.35746L57.5326 10.3045L69.7357 14.4412L70.0568 13.4942ZM57.8536 9.35746L58.1746 8.41038L36.9061 1.2014L36.5851 2.14847L36.2641 3.09555L57.5326 10.3045L57.8536 9.35746ZM36.5851 2.14847L36.9057 1.20126C36.5216 1.07125 36.1041 1.06769 35.7125 1.20037L36.0333 2.1475L36.3542 3.09462C36.3223 3.10543 36.2888 3.10393 36.2645 3.09569L36.5851 2.14847ZM36.0333 2.1475L35.7123 1.20044L2.24156 12.5471L2.56262 13.4942L2.88367 14.4412L36.3544 3.09456L36.0333 2.1475ZM2.56262 13.4942L2.24156 12.5471C1.266 12.8778 0.873947 13.7978 0.893292 14.5553C0.912637 15.3128 1.35273 16.2155 2.35263 16.4867L2.61438 15.5215L2.87612 14.5564C2.87604 14.5564 2.87669 14.5565 2.87796 14.557C2.87923 14.5575 2.88094 14.5582 2.88299 14.5592C2.88725 14.5612 2.89187 14.5639 2.89638 14.5672C2.90084 14.5705 2.90428 14.5737 2.9067 14.5762C2.90907 14.5787 2.91005 14.5801 2.90998 14.58C2.90966 14.5796 2.90538 14.573 2.90098 14.5586C2.89656 14.5441 2.89318 14.5254 2.89264 14.5042C2.8921 14.4831 2.89451 14.4638 2.89839 14.4482C2.90226 14.4328 2.90664 14.4246 2.90783 14.4226C2.90869 14.4212 2.90622 14.4256 2.89881 14.4317C2.8953 14.4346 2.89165 14.4371 2.8883 14.439C2.88493 14.4408 2.88312 14.4414 2.88368 14.4412L2.56262 13.4942ZM2.61438 15.5215L2.35264 16.4867L18.2872 20.8079L18.5489 19.8428L18.8107 18.8777L2.87611 14.5564L2.61438 15.5215ZM18.5489 19.8428H17.5489V22.0049H18.5489H19.5489V19.8428H18.5489ZM18.5489 22.0049L18.8106 21.0398L2.42685 16.5974L2.16516 17.5625L1.90346 18.5277L18.2873 22.9701L18.5489 22.0049ZM2.16516 17.5625L2.42701 16.5974C1.55741 16.3615 1.02606 15.5493 1.00088 14.5637C0.975694 13.5781 1.46599 12.7248 2.33102 12.4314L2.00988 11.4844L1.68875 10.5374C-0.206327 11.18 -1.0401 12.9855 -0.998471 14.6148C-0.956842 16.2441 -0.0305022 18.003 1.9033 18.5276L2.16516 17.5625ZM2.00988 11.4844L2.33096 12.4315L35.8017 1.08381L35.4806 0.136755L35.1595 -0.810297L1.6888 10.5374L2.00988 11.4844Z" fill="#345375" mask="url(#path-5-inside-1_1_478)"/>
</svg>
