<svg width="21" height="22" viewBox="0 0 21 22" fill="none" xmlns="http://www.w3.org/2000/svg">
<g clip-path="url(#clip0_1_381)">
<path d="M8.81639 5.7998H19.6463C20.394 5.7998 21.0001 5.16482 21.0001 4.38159C21.0001 3.59836 20.394 2.96338 19.6463 2.96338H8.81639C8.06876 2.96338 7.46265 3.59836 7.46265 4.38159C7.46265 5.16482 8.06867 5.7998 8.81639 5.7998Z" fill="#345375"/>
<path d="M19.6463 9.58154H8.81639C8.06876 9.58154 7.46265 10.2165 7.46265 10.9998C7.46265 11.783 8.06876 12.418 8.81639 12.418H19.6463C20.394 12.418 21.0001 11.783 21.0001 10.9998C21.0001 10.2165 20.394 9.58154 19.6463 9.58154Z" fill="#345375"/>
<path d="M19.6463 16.2002H8.81639C8.06876 16.2002 7.46265 16.8352 7.46265 17.6184C7.46265 18.4016 8.06876 19.0366 8.81639 19.0366H19.6463C20.394 19.0366 21.0001 18.4016 21.0001 17.6184C21.0001 16.8352 20.394 16.2002 19.6463 16.2002Z" fill="#345375"/>
<path d="M4.40293 9.87134L3.50143 9.73405L3.09828 8.87821C2.98421 8.63617 2.74902 8.48291 2.49126 8.48291C2.23369 8.48291 1.99832 8.63617 1.88425 8.87821L1.48101 9.73405L0.579597 9.87134C0.324642 9.9101 0.112736 10.0972 0.0331355 10.3539C-0.0464647 10.6106 0.019959 10.8924 0.204339 11.0808L0.856663 11.7469L0.702607 12.6875C0.659016 12.9536 0.763435 13.2225 0.971822 13.3811C1.08978 13.4709 1.2293 13.5166 1.36973 13.5166C1.4774 13.5166 1.58561 13.4897 1.68461 13.4352L2.49108 12.991L3.29755 13.4352C3.39665 13.4898 3.50477 13.5166 3.61243 13.5166C3.61307 13.5166 3.61379 13.5166 3.61433 13.5166C3.98814 13.5165 4.29111 13.1991 4.29111 12.8075C4.29111 12.748 4.28416 12.6902 4.27099 12.635L4.1255 11.7469L4.77783 11.0808C4.96239 10.8924 5.02872 10.6106 4.94912 10.3539C4.86979 10.0972 4.65789 9.9101 4.40293 9.87134Z" fill="#345375"/>
<path d="M4.40293 3.25317L3.50143 3.11589L3.09828 2.26005C2.98421 2.01801 2.74902 1.86475 2.49126 1.86475C2.23369 1.86475 1.99832 2.01801 1.88425 2.26005L1.48101 3.11589L0.579597 3.25317C0.324642 3.29194 0.112736 3.47905 0.0331355 3.73574C-0.0464647 3.99244 0.019959 4.27419 0.204339 4.46262L0.856663 5.1287L0.702607 6.06936C0.659016 6.33541 0.763435 6.6043 0.971822 6.76295C1.08978 6.85277 1.2293 6.89844 1.36973 6.89844C1.4774 6.89844 1.58561 6.87149 1.68461 6.81703L2.49108 6.37285L3.29755 6.81703C3.39665 6.87159 3.50477 6.89844 3.61243 6.89844C3.61307 6.89844 3.61379 6.89844 3.61433 6.89844C3.98814 6.89844 4.29111 6.58095 4.29111 6.18934C4.29111 6.12987 4.28416 6.072 4.27099 6.01679L4.1255 5.1287L4.77783 4.46262C4.96239 4.27419 5.02872 3.99244 4.94912 3.73574C4.86979 3.47905 4.65789 3.29194 4.40293 3.25317Z" fill="#345375"/>
<path d="M4.40293 16.49L3.50143 16.3527L3.09828 15.4969C2.98421 15.2548 2.74902 15.1016 2.49126 15.1016C2.23369 15.1016 1.99832 15.2548 1.88425 15.4969L1.48101 16.3527L0.579597 16.49C0.324642 16.5288 0.112736 16.7159 0.0331355 16.9726C-0.0464647 17.2293 0.019959 17.511 0.204339 17.6994L0.856663 18.3655L0.702607 19.3062C0.659016 19.5722 0.763435 19.8411 0.971822 19.9998C1.08978 20.0896 1.2293 20.1353 1.36973 20.1353C1.4774 20.1353 1.58561 20.1083 1.68461 20.0539L2.49108 19.6097L3.29755 20.0539C3.39665 20.1084 3.50477 20.1353 3.61243 20.1353C3.61307 20.1353 3.61379 20.1353 3.61433 20.1353C3.98814 20.1352 4.29111 19.8178 4.29111 19.4262C4.29111 19.3667 4.28416 19.3088 4.27099 19.2536L4.1255 18.3655L4.77783 17.6994C4.96239 17.511 5.02872 17.2293 4.94912 16.9726C4.86979 16.7159 4.65789 16.5288 4.40293 16.49Z" fill="#345375"/>
</g>
<defs>
<clipPath id="clip0_1_381">
<rect width="21" height="22" fill="white"/>
</clipPath>
</defs>
</svg>
