<svg width="39" height="39" viewBox="0 0 39 39" fill="none" xmlns="http://www.w3.org/2000/svg">
<g clip-path="url(#clip0_1_495)">
<path d="M33.1467 39.0001H2.73053C2.00704 39.0001 1.31312 38.7701 0.801167 38.3607C0.28921 37.9513 0.00106825 37.3959 1.81881e-05 36.8165V2.17415C-0.00129086 1.88837 0.0680745 1.60522 0.204112 1.34102C0.340149 1.07682 0.540166 0.836813 0.792621 0.634842C1.04535 0.431468 1.34625 0.27056 1.67767 0.161559C2.00909 0.0525572 2.36434 -0.00234366 2.72261 7.6678e-05H36.2695C36.9934 0.000916229 37.6873 0.231577 38.1991 0.641493C38.711 1.05141 38.999 1.60714 39 2.18684V29.5421V32.8302V38.9906L33.1467 39.0001ZM36.65 37.1339V32.7889V2.18684C36.6485 2.10623 36.6089 2.02907 36.539 1.97102C36.4671 1.9139 36.3707 1.88097 36.2695 1.87898H2.73053C2.67758 1.87618 2.6245 1.88246 2.57483 1.89742C2.52516 1.91238 2.48005 1.93566 2.44253 1.96571C2.40501 1.99576 2.37593 2.03189 2.35726 2.07167C2.33858 2.11145 2.33073 2.15396 2.33423 2.19637V36.8165C2.33664 36.896 2.37624 36.9719 2.4452 37.0291C2.51803 37.087 2.61605 37.12 2.71864 37.1212H36.65V37.1339ZM7.52974 33.0079V31.0592H21.8362V33.0079H7.52974ZM7.52974 27.7806V25.8319H29.469V27.7774L7.52974 27.7933V27.7806ZM29.4492 20.3126V22.2518H26.0053V20.3126H29.4492ZM23.2906 18.5892V22.2359H19.8468V18.5892H23.2906ZM17.1361 13.3651V22.2518H13.6922V13.3651H17.1361ZM10.9776 9.70882V22.2359H7.52974V9.70882H10.9776ZM27.4003 9.79451L32.9723 9.81038C32.9701 10.4009 32.8222 10.9853 32.5373 11.5299C32.2523 12.0746 31.8358 12.5688 31.3118 12.9842C31.0665 13.1766 30.7998 13.3509 30.5152 13.5047L27.4003 9.79451ZM26.8296 8.90901L26.5284 4.14827C26.5274 4.12576 26.5319 4.1033 26.5416 4.08218C26.5514 4.06106 26.5663 4.0417 26.5855 4.02519C26.6046 4.00868 26.6276 3.99536 26.6532 3.98598C26.6788 3.9766 26.7064 3.97135 26.7345 3.97054C28.284 3.84358 30.0951 4.44026 31.2286 5.27181C32.39 6.1284 33.0989 7.30805 33.2101 8.56941C33.2133 8.61437 33.1944 8.65855 33.1573 8.6924C33.1202 8.72626 33.068 8.74706 33.0119 8.75032L27.0674 9.09309C27.0113 9.09571 26.9561 9.08054 26.9138 9.05084C26.8715 9.02114 26.8456 8.97932 26.8415 8.9344L26.8296 8.90901ZM27.4597 8.56941L32.354 8.2076C31.9974 6.1097 30.0357 4.59578 27.2021 4.42439L27.4597 8.56941ZM26.1559 9.58821L29.144 13.7142C28.3824 14.0605 27.535 14.2685 26.6618 14.3233C25.7887 14.3781 24.9111 14.2784 24.0914 14.0313C23.2717 13.7843 22.5299 13.3958 21.9186 12.8936C21.3072 12.3913 20.8413 11.7875 20.5538 11.1249C20.2663 10.4624 20.1643 9.75727 20.255 9.05962C20.3457 8.36197 20.6269 7.68883 21.0786 7.08792C21.5304 6.487 22.1416 5.97301 22.8691 5.58237C23.5965 5.19174 24.4223 4.93401 25.288 4.82747L26.1559 9.58821Z" fill="#345375"/>
</g>
<defs>
<clipPath id="clip0_1_495">
<rect width="39" height="39" fill="white"/>
</clipPath>
</defs>
</svg>
