<svg width="44" height="39" viewBox="0 0 44 39" fill="none" xmlns="http://www.w3.org/2000/svg">
<path fill-rule="evenodd" clip-rule="evenodd" d="M14.6667 3C14.6667 1.34315 15.98 0 17.6 0H26.4C28.02 0 29.3333 1.34315 29.3333 3V6H41.0667C42.6867 6 44 7.34316 44 9V18C44 20.6664 42.8651 23.062 41.0667 24.7082V34.5C41.0667 36.9852 39.0966 39 36.6667 39H7.33333C4.90327 39 2.93333 36.9852 2.93333 34.5V24.7077C1.13511 23.0616 0 20.6665 0 18V9C0 7.34316 1.3133 6 2.93333 6H14.6667V3ZM26.4 3V6H17.6V3H26.4ZM2.93333 9H41.0667V18C41.0667 19.962 40.1474 21.704 38.7191 22.8012C37.7388 23.5543 36.5223 24 35.2 24H23.4667V22.5C23.4667 21.6716 22.81 21 22 21C21.19 21 20.5333 21.6716 20.5333 22.5V24H8.8C7.47795 24 6.26149 23.554 5.28085 22.8007C3.85249 21.7034 2.93333 19.9619 2.93333 18V9ZM20.5333 27H8.8C7.77219 27 6.78457 26.8192 5.86667 26.4871V34.5C5.86667 35.3283 6.52332 36 7.33333 36H36.6667C37.4766 36 38.1333 35.3283 38.1333 34.5V26.4874C37.2155 26.8193 36.2278 27 35.2 27H23.4667V28.5C23.4667 29.3284 22.81 30 22 30C21.19 30 20.5333 29.3284 20.5333 28.5V27Z" fill="#345375"/>
</svg>
