<svg width="21" height="21" viewBox="0 0 21 21" fill="none" xmlns="http://www.w3.org/2000/svg">
<path d="M10.5 19.0723H20H10.5Z" fill="#E1E1E1"/>
<path d="M10.5 19.0723H20" stroke="#818181" stroke-width="2" stroke-linecap="round" stroke-linejoin="round"/>
<path d="M15.25 1.65584C15.6699 1.23591 16.2395 1 16.8333 1C17.1274 1 17.4186 1.05792 17.6902 1.17045C17.9619 1.28298 18.2087 1.44791 18.4167 1.65584C18.6246 1.86376 18.7895 2.11061 18.9021 2.38228C19.0146 2.65395 19.0725 2.94512 19.0725 3.23917C19.0725 3.53322 19.0146 3.8244 18.9021 4.09607C18.7895 4.36773 18.6246 4.61458 18.4167 4.8225L5.22222 18.017L1 19.0725L2.05556 14.8503L15.25 1.65584Z" fill="#E1E1E1" stroke="#818181" stroke-width="2" stroke-linecap="round" stroke-linejoin="round"/>
</svg>
