<svg width="163" height="54" viewBox="0 0 163 54" fill="none" xmlns="http://www.w3.org/2000/svg">
<path d="M4.7434 0.478214C3.11376 0.982624 0.94092 3.38828 0.436509 5.28952C-0.145503 7.34596 -0.145503 46.1856 0.436509 48.2808C1.01852 50.2985 3.30777 52.5489 5.36421 53.0921C6.48943 53.4025 13.2408 53.5189 27.8299 53.4413L48.7047 53.3249L50.1403 52.4325C50.9164 51.9281 51.964 50.8805 52.4684 50.1044L53.3608 48.6688V26.7076V4.78511L52.3132 3.19427C51.6924 2.26305 50.6059 1.29303 49.5971 0.78862C47.8899 -0.0261955 47.5407 -0.0261955 26.9375 0.0126038C13.5512 0.0514069 5.55822 0.206608 4.7434 0.478214ZM40.7505 6.18193C39.6253 7.07435 36.0168 8.50998 34.9304 8.50998C34.038 8.50998 33.5336 7.81157 34.0768 7.26836C34.62 6.72515 39.0821 5.48352 40.5565 5.44472L41.7206 5.40592L40.7505 6.18193ZM48.1227 6.53114C48.7435 7.73397 48.6271 11.8469 47.8899 12.5453C46.9587 13.4765 46.2215 13.3213 43.2726 11.4976C39.7029 9.286 39.5865 8.58759 42.5742 7.26836C46.5319 5.52232 47.5019 5.40592 48.1227 6.53114ZM32.3696 8.74279C33.3396 9.13079 33.1068 9.55761 31.1667 10.8768C30.1967 11.5752 28.4119 12.9721 27.2867 14.0197C26.1614 15.0285 24.9586 15.8821 24.6482 15.8821C21.9322 15.8821 26.3942 9.86801 29.8087 8.97559C31.71 8.47118 31.6712 8.47118 32.3696 8.74279ZM39.8193 13.2437C41.9146 14.5241 42.807 15.9209 42.031 16.697C41.4878 17.2402 37.7241 17.7834 32.7188 18.0938C28.5283 18.3266 27.9463 18.2102 28.6447 17.2402C29.1491 16.5418 34.3484 12.1185 34.9304 11.8857C35.9392 11.4588 37.6465 11.9633 39.8193 13.2437ZM22.1262 14.8345C22.1262 15.7269 20.1861 19.2966 19.5653 19.5294C18.7117 19.8786 17.4701 19.1026 17.4701 18.2102C17.4701 17.7834 18.2849 16.8134 19.5265 15.9209C21.6994 14.2137 22.1262 14.0585 22.1262 14.8345ZM16.4612 20.1114C16.694 20.4994 13.8228 23.2543 13.202 23.2543C12.5812 23.2543 12.7364 22.8663 14.0168 21.2754C15.1808 19.801 16.0344 19.413 16.4612 20.1114ZM41.061 21.7799C41.9534 22.6723 41.4878 23.7199 39.1209 26.242C36.5601 28.8804 35.1244 29.8504 33.7664 29.8504C32.5636 29.8504 27.9463 25.3107 27.9463 24.1855C27.9463 22.4395 31.2831 21.5083 37.8793 21.3531C39.5477 21.3531 40.7893 21.5083 41.061 21.7799ZM15.142 25.0391C15.142 25.3495 10.7963 31.1309 10.2919 31.4801C9.6323 31.9457 8.93389 30.9757 9.20549 29.8892C9.6323 28.0268 10.4859 26.7852 11.9215 25.7763C13.2796 24.8839 15.142 24.4571 15.142 25.0391ZM48.1227 25.9315C48.6271 26.9016 48.6271 38.7746 48.1227 40.0938C47.8123 40.9087 47.5019 41.1027 46.4155 41.1027C45.2514 41.1027 44.7082 40.6759 41.6818 37.3778C39.7805 35.3213 38.0733 33.3813 37.9181 33.0709C37.1033 31.7129 39.4313 28.9968 43.6606 26.242C45.5618 25.0003 47.5407 24.8839 48.1227 25.9315ZM26.8599 29.2296C29.6147 32.1009 30.1967 33.3037 29.6535 34.5065C29.4595 34.9333 27.8687 36.8346 26.0838 38.7746C23.7558 41.2579 22.5918 42.2667 21.9322 42.2667C21.0397 42.2667 19.7981 41.3743 19.7981 40.7535C19.7981 39.7446 20.6129 30.2384 20.7681 29.2296C21.0785 27.3672 22.3978 25.8927 23.4454 26.2032C23.8722 26.3196 25.4242 27.6776 26.8599 29.2296ZM17.8581 29.4236C17.8581 30.4712 17.1209 38.503 16.8881 39.8222C16.5776 41.5295 15.3748 42.1891 14.3272 41.2579C12.9304 40.0162 10.8351 36.175 11.1067 35.4377C11.4171 34.6229 15.336 29.54 16.1896 28.8028C16.9269 28.2208 17.8581 28.57 17.8581 29.4236ZM8.81748 34.5841C8.70108 34.8557 8.08027 36.2914 7.45946 37.8046C6.33423 40.5595 5.75222 41.0639 5.51941 39.5118C5.13141 37.1838 6.68344 34.1185 8.23547 34.1185C8.70108 34.1185 8.93389 34.3125 8.81748 34.5841ZM35.6676 38.4254C36.4049 38.8522 38.2673 40.4818 39.8581 42.0339C42.9622 45.0991 43.4278 46.3796 41.837 47.466C41.0998 47.9704 39.6253 48.0868 33.3396 48.0868C26.4718 48.0868 25.6182 48.0092 24.8034 47.3496C23.9886 46.69 23.9498 46.5348 24.4542 45.4096C24.9586 44.1291 29.5759 39.5894 31.6324 38.3478C33.1456 37.4166 34.038 37.4166 35.6676 38.4254ZM10.7963 40.1326C11.2231 40.6759 12.1544 42.2279 12.8528 43.5859C14.0944 45.9916 14.0944 46.0692 13.4736 47.078C12.8528 48.0092 12.5812 48.0868 9.98151 48.0868C5.75222 48.0868 5.36421 47.272 7.42065 42.5383C9.05029 38.8522 9.5159 38.503 10.7963 40.1326Z" fill="#9A1B30"/>
<path d="M58.0114 11.3636H61.0455L64.25 19.1818H64.3864L67.5909 11.3636H70.625V23H68.2386V15.4261H68.142L65.1307 22.9432H63.5057L60.4943 15.3977H60.3977V23H58.0114V11.3636ZM76.5838 23.1705C75.6861 23.1705 74.9134 22.9886 74.2656 22.625C73.6217 22.2576 73.1255 21.7386 72.777 21.0682C72.4285 20.3939 72.2543 19.5966 72.2543 18.6761C72.2543 17.7784 72.4285 16.9905 72.777 16.3125C73.1255 15.6345 73.616 15.1061 74.2486 14.7273C74.8849 14.3485 75.6312 14.1591 76.4872 14.1591C77.063 14.1591 77.599 14.2519 78.0952 14.4375C78.5952 14.6193 79.0308 14.8939 79.402 15.2614C79.777 15.6288 80.0687 16.0909 80.277 16.6477C80.4853 17.2008 80.5895 17.8485 80.5895 18.5909V19.2557H73.2202V17.7557H78.3111C78.3111 17.4072 78.2353 17.0985 78.0838 16.8295C77.9323 16.5606 77.7221 16.3504 77.4531 16.1989C77.188 16.0436 76.8793 15.9659 76.527 15.9659C76.1596 15.9659 75.8338 16.0511 75.5497 16.2216C75.2694 16.3883 75.0497 16.6136 74.8906 16.8977C74.7315 17.178 74.6501 17.4905 74.6463 17.8352V19.2614C74.6463 19.6932 74.7259 20.0663 74.8849 20.3807C75.0478 20.6951 75.277 20.9375 75.5724 21.108C75.8679 21.2784 76.2183 21.3636 76.6236 21.3636C76.8925 21.3636 77.1387 21.3258 77.3622 21.25C77.5857 21.1742 77.777 21.0606 77.9361 20.9091C78.0952 20.7576 78.2164 20.572 78.2997 20.3523L80.5384 20.5C80.4247 21.0379 80.1918 21.5076 79.8395 21.9091C79.491 22.3068 79.0402 22.6174 78.4872 22.8409C77.938 23.0606 77.3035 23.1705 76.5838 23.1705ZM82.1236 23V21.5568L86.3963 16.267V16.2045H82.2713V14.2727H89.3111V15.8466L85.2997 21.0057V21.0682H89.4588V23H82.1236ZM96.9062 19.2841V14.2727H99.3267V23H97.0028V21.4148H96.9119C96.715 21.9261 96.3873 22.3371 95.929 22.6477C95.4744 22.9583 94.9195 23.1136 94.2642 23.1136C93.6809 23.1136 93.1676 22.9811 92.7244 22.7159C92.2813 22.4508 91.9347 22.0739 91.6847 21.5852C91.4384 21.0966 91.3134 20.5114 91.3097 19.8295V14.2727H93.7301V19.3977C93.7339 19.9129 93.8722 20.3201 94.1449 20.6193C94.4176 20.9186 94.7831 21.0682 95.2415 21.0682C95.5331 21.0682 95.8059 21.0019 96.0597 20.8693C96.3134 20.733 96.518 20.5322 96.6733 20.267C96.8324 20.0019 96.91 19.6742 96.9062 19.2841ZM103.683 17.9545V23H101.263V14.2727H103.57V15.8125H103.672C103.865 15.3049 104.189 14.9034 104.643 14.608C105.098 14.3087 105.649 14.1591 106.297 14.1591C106.903 14.1591 107.431 14.2917 107.882 14.5568C108.333 14.822 108.683 15.2008 108.933 15.6932C109.183 16.1818 109.308 16.7652 109.308 17.4432V23H106.888V17.875C106.892 17.3409 106.755 16.9242 106.479 16.625C106.202 16.322 105.821 16.1705 105.337 16.1705C105.011 16.1705 104.723 16.2405 104.473 16.3807C104.227 16.5208 104.034 16.7254 103.893 16.9943C103.757 17.2595 103.687 17.5795 103.683 17.9545ZM111.216 23V14.2727H113.636V23H111.216ZM112.432 13.1477C112.072 13.1477 111.763 13.0284 111.506 12.7898C111.252 12.5473 111.125 12.2576 111.125 11.9205C111.125 11.5871 111.252 11.3011 111.506 11.0625C111.763 10.8201 112.072 10.6989 112.432 10.6989C112.792 10.6989 113.098 10.8201 113.352 11.0625C113.61 11.3011 113.739 11.5871 113.739 11.9205C113.739 12.2576 113.61 12.5473 113.352 12.7898C113.098 13.0284 112.792 13.1477 112.432 13.1477ZM117.07 26.2727C116.763 26.2727 116.475 26.2481 116.206 26.1989C115.941 26.1534 115.721 26.0947 115.547 26.0227L116.092 24.2159C116.376 24.303 116.632 24.3504 116.859 24.358C117.09 24.3655 117.289 24.3125 117.456 24.1989C117.626 24.0852 117.765 23.892 117.871 23.6193L118.013 23.25L114.882 14.2727H117.428L119.234 20.6818H119.325L121.149 14.2727H123.712L120.32 23.9432C120.157 24.4129 119.935 24.822 119.655 25.1705C119.378 25.5227 119.028 25.7936 118.604 25.983C118.179 26.1761 117.668 26.2727 117.07 26.2727ZM128.646 23.1705C127.749 23.1705 126.976 22.9886 126.328 22.625C125.684 22.2576 125.188 21.7386 124.839 21.0682C124.491 20.3939 124.317 19.5966 124.317 18.6761C124.317 17.7784 124.491 16.9905 124.839 16.3125C125.188 15.6345 125.679 15.1061 126.311 14.7273C126.947 14.3485 127.694 14.1591 128.55 14.1591C129.125 14.1591 129.661 14.2519 130.158 14.4375C130.658 14.6193 131.093 14.8939 131.464 15.2614C131.839 15.6288 132.131 16.0909 132.339 16.6477C132.548 17.2008 132.652 17.8485 132.652 18.5909V19.2557H125.283V17.7557H130.374C130.374 17.4072 130.298 17.0985 130.146 16.8295C129.995 16.5606 129.785 16.3504 129.516 16.1989C129.25 16.0436 128.942 15.9659 128.589 15.9659C128.222 15.9659 127.896 16.0511 127.612 16.2216C127.332 16.3883 127.112 16.6136 126.953 16.8977C126.794 17.178 126.713 17.4905 126.709 17.8352V19.2614C126.709 19.6932 126.788 20.0663 126.947 20.3807C127.11 20.6951 127.339 20.9375 127.635 21.108C127.93 21.2784 128.281 21.3636 128.686 21.3636C128.955 21.3636 129.201 21.3258 129.425 21.25C129.648 21.1742 129.839 21.0606 129.999 20.9091C130.158 20.7576 130.279 20.572 130.362 20.3523L132.601 20.5C132.487 21.0379 132.254 21.5076 131.902 21.9091C131.554 22.3068 131.103 22.6174 130.55 22.8409C130 23.0606 129.366 23.1705 128.646 23.1705ZM138.874 14.2727V16.0909H133.618V14.2727H138.874ZM134.811 12.1818H137.232V20.3182C137.232 20.5417 137.266 20.7159 137.334 20.8409C137.402 20.9621 137.497 21.0473 137.618 21.0966C137.743 21.1458 137.887 21.1705 138.05 21.1705C138.163 21.1705 138.277 21.161 138.391 21.142C138.504 21.1193 138.591 21.1023 138.652 21.0909L139.033 22.892C138.911 22.9299 138.741 22.9735 138.521 23.0227C138.302 23.0758 138.035 23.108 137.72 23.1193C137.137 23.142 136.625 23.0644 136.186 22.8864C135.75 22.7083 135.411 22.4318 135.169 22.0568C134.927 21.6818 134.807 21.2083 134.811 20.6364V12.1818ZM57.5682 32.392V30.3636H67.125V32.392H63.5625V42H61.1307V32.392H57.5682ZM69.9545 42.1648C69.3977 42.1648 68.9015 42.0682 68.4659 41.875C68.0303 41.678 67.6856 41.3883 67.4318 41.0057C67.1818 40.6193 67.0568 40.1383 67.0568 39.5625C67.0568 39.0777 67.1458 38.6705 67.3239 38.3409C67.5019 38.0114 67.7443 37.7462 68.0511 37.5455C68.358 37.3447 68.7064 37.1932 69.0966 37.0909C69.4905 36.9886 69.9034 36.9167 70.3352 36.875C70.8428 36.822 71.2519 36.7727 71.5625 36.7273C71.8731 36.678 72.0985 36.6061 72.2386 36.5114C72.3788 36.4167 72.4489 36.2765 72.4489 36.0909V36.0568C72.4489 35.697 72.3352 35.4186 72.108 35.2216C71.8845 35.0246 71.5663 34.9261 71.1534 34.9261C70.7178 34.9261 70.3712 35.0227 70.1136 35.2159C69.8561 35.4053 69.6856 35.6439 69.6023 35.9318L67.3636 35.75C67.4773 35.2197 67.7008 34.7614 68.0341 34.375C68.3674 33.9848 68.7973 33.6856 69.3239 33.4773C69.8542 33.2652 70.4678 33.1591 71.1648 33.1591C71.6496 33.1591 72.1136 33.2159 72.5568 33.3295C73.0038 33.4432 73.3996 33.6193 73.7443 33.858C74.0928 34.0966 74.3674 34.4034 74.5682 34.7784C74.7689 35.1496 74.8693 35.5947 74.8693 36.1136V42H72.5739V40.7898H72.5057C72.3655 41.0625 72.178 41.303 71.9432 41.5114C71.7083 41.7159 71.4261 41.8769 71.0966 41.9943C70.767 42.108 70.3864 42.1648 69.9545 42.1648ZM70.6477 40.4943C71.0038 40.4943 71.3182 40.4242 71.5909 40.2841C71.8636 40.1402 72.0777 39.947 72.233 39.7045C72.3883 39.4621 72.4659 39.1875 72.4659 38.8807V37.9545C72.3902 38.0038 72.286 38.0492 72.1534 38.0909C72.0246 38.1288 71.8788 38.1648 71.7159 38.1989C71.553 38.2292 71.3902 38.2576 71.2273 38.2841C71.0644 38.3068 70.9167 38.3277 70.7841 38.3466C70.5 38.3883 70.2519 38.4545 70.0398 38.5455C69.8277 38.6364 69.6629 38.7595 69.5455 38.9148C69.428 39.0663 69.3693 39.2557 69.3693 39.483C69.3693 39.8125 69.4886 40.0644 69.7273 40.2386C69.9697 40.4091 70.2765 40.4943 70.6477 40.4943ZM78.9403 39.4886L78.946 36.5852H79.2983L82.0938 33.2727H84.8722L81.1165 37.6591H80.5426L78.9403 39.4886ZM76.7472 42V30.3636H79.1676V42H76.7472ZM82.2017 42L79.6335 38.1989L81.2472 36.4886L85.0369 42H82.2017ZM86.0597 42V33.2727H88.4801V42H86.0597ZM87.2756 32.1477C86.9157 32.1477 86.607 32.0284 86.3494 31.7898C86.0956 31.5473 85.9688 31.2576 85.9688 30.9205C85.9688 30.5871 86.0956 30.3011 86.3494 30.0625C86.607 29.8201 86.9157 29.6989 87.2756 29.6989C87.6354 29.6989 87.9422 29.8201 88.196 30.0625C88.4536 30.3011 88.5824 30.5871 88.5824 30.9205C88.5824 31.2576 88.4536 31.5473 88.196 31.7898C87.9422 32.0284 87.6354 32.1477 87.2756 32.1477ZM90.419 45.2727V33.2727H92.8054V34.7386H92.9134C93.0194 34.5038 93.1728 34.2652 93.3736 34.0227C93.5781 33.7765 93.8433 33.572 94.169 33.4091C94.4986 33.2424 94.9077 33.1591 95.3963 33.1591C96.0327 33.1591 96.6198 33.3258 97.1577 33.6591C97.6955 33.9886 98.1255 34.4867 98.4474 35.1534C98.7694 35.8163 98.9304 36.6477 98.9304 37.6477C98.9304 38.6212 98.7732 39.4432 98.4588 40.1136C98.1482 40.7803 97.724 41.286 97.1861 41.6307C96.652 41.9716 96.0535 42.142 95.3906 42.142C94.9209 42.142 94.5213 42.0644 94.1918 41.9091C93.866 41.7538 93.599 41.5587 93.3906 41.3239C93.1823 41.0852 93.0232 40.8447 92.9134 40.6023H92.8395V45.2727H90.419ZM92.7884 37.6364C92.7884 38.1553 92.8603 38.608 93.0043 38.9943C93.1482 39.3807 93.3565 39.6818 93.6293 39.8977C93.902 40.1098 94.2334 40.2159 94.6236 40.2159C95.0175 40.2159 95.3509 40.108 95.6236 39.892C95.8963 39.6723 96.1027 39.3693 96.2429 38.983C96.3868 38.5928 96.4588 38.1439 96.4588 37.6364C96.4588 37.1326 96.3887 36.6894 96.2486 36.3068C96.1084 35.9242 95.902 35.625 95.6293 35.4091C95.3565 35.1932 95.0213 35.0852 94.6236 35.0852C94.2296 35.0852 93.8963 35.1894 93.6236 35.3977C93.3546 35.6061 93.1482 35.9015 93.0043 36.2841C92.8603 36.6667 92.7884 37.1174 92.7884 37.6364ZM110.605 33.7102C110.56 33.2519 110.365 32.8958 110.02 32.642C109.675 32.3883 109.207 32.2614 108.616 32.2614C108.215 32.2614 107.876 32.3182 107.599 32.4318C107.323 32.5417 107.111 32.6951 106.963 32.892C106.819 33.089 106.747 33.3125 106.747 33.5625C106.74 33.7708 106.783 33.9527 106.878 34.108C106.976 34.2633 107.111 34.3977 107.281 34.5114C107.452 34.6212 107.649 34.7178 107.872 34.8011C108.096 34.8807 108.334 34.9489 108.588 35.0057L109.634 35.2557C110.141 35.3693 110.607 35.5208 111.031 35.7102C111.455 35.8996 111.823 36.1326 112.134 36.4091C112.444 36.6856 112.685 37.0114 112.855 37.3864C113.029 37.7614 113.118 38.1913 113.122 38.6761C113.118 39.3883 112.937 40.0057 112.577 40.5284C112.221 41.0473 111.705 41.4508 111.031 41.7386C110.361 42.0227 109.552 42.1648 108.605 42.1648C107.666 42.1648 106.848 42.0208 106.151 41.733C105.457 41.4451 104.916 41.0189 104.526 40.4545C104.139 39.8864 103.937 39.1837 103.918 38.3466H106.298C106.325 38.7367 106.437 39.0625 106.634 39.3239C106.834 39.5814 107.101 39.7765 107.435 39.9091C107.772 40.0379 108.152 40.1023 108.577 40.1023C108.993 40.1023 109.355 40.0417 109.662 39.9205C109.973 39.7992 110.213 39.6307 110.384 39.4148C110.554 39.1989 110.639 38.9508 110.639 38.6705C110.639 38.4091 110.562 38.1894 110.406 38.0114C110.255 37.8333 110.031 37.6818 109.736 37.5568C109.444 37.4318 109.086 37.3182 108.662 37.2159L107.395 36.8977C106.414 36.6591 105.639 36.286 105.071 35.7784C104.503 35.2708 104.221 34.5871 104.224 33.7273C104.221 33.0227 104.408 32.4072 104.787 31.8807C105.17 31.3542 105.694 30.9432 106.361 30.6477C107.027 30.3523 107.785 30.2045 108.634 30.2045C109.497 30.2045 110.251 30.3523 110.895 30.6477C111.543 30.9432 112.046 31.3542 112.406 31.8807C112.766 32.4072 112.952 33.017 112.963 33.7102H110.605ZM114.732 42V33.2727H117.152V42H114.732ZM115.947 32.1477C115.588 32.1477 115.279 32.0284 115.021 31.7898C114.768 31.5473 114.641 31.2576 114.641 30.9205C114.641 30.5871 114.768 30.3011 115.021 30.0625C115.279 29.8201 115.588 29.6989 115.947 29.6989C116.307 29.6989 116.614 29.8201 116.868 30.0625C117.125 30.3011 117.254 30.5871 117.254 30.9205C117.254 31.2576 117.125 31.5473 116.868 31.7898C116.614 32.0284 116.307 32.1477 115.947 32.1477ZM126.352 35.7614L124.136 35.8977C124.098 35.7083 124.017 35.5379 123.892 35.3864C123.767 35.2311 123.602 35.108 123.398 35.017C123.197 34.9223 122.956 34.875 122.676 34.875C122.301 34.875 121.985 34.9545 121.727 35.1136C121.47 35.2689 121.341 35.4773 121.341 35.7386C121.341 35.947 121.424 36.1231 121.591 36.267C121.758 36.411 122.044 36.5265 122.449 36.6136L124.028 36.9318C124.877 37.1061 125.509 37.3864 125.926 37.7727C126.343 38.1591 126.551 38.6667 126.551 39.2955C126.551 39.8674 126.383 40.3693 126.045 40.8011C125.712 41.233 125.254 41.5701 124.67 41.8125C124.091 42.0511 123.422 42.1705 122.665 42.1705C121.509 42.1705 120.589 41.9299 119.903 41.4489C119.222 40.964 118.822 40.3049 118.705 39.4716L121.085 39.3466C121.157 39.6989 121.331 39.9678 121.608 40.1534C121.884 40.3352 122.239 40.4261 122.67 40.4261C123.095 40.4261 123.436 40.3447 123.693 40.1818C123.955 40.0152 124.087 39.8011 124.091 39.5398C124.087 39.3201 123.994 39.1402 123.812 39C123.631 38.8561 123.35 38.7462 122.972 38.6705L121.46 38.3693C120.608 38.1989 119.973 37.9034 119.557 37.483C119.144 37.0625 118.938 36.5265 118.938 35.875C118.938 35.3144 119.089 34.8314 119.392 34.4261C119.699 34.0208 120.129 33.7083 120.682 33.4886C121.239 33.2689 121.89 33.1591 122.636 33.1591C123.739 33.1591 124.606 33.392 125.239 33.858C125.875 34.3239 126.246 34.9583 126.352 35.7614ZM132.717 33.2727V35.0909H127.462V33.2727H132.717ZM128.655 31.1818H131.075V39.3182C131.075 39.5417 131.109 39.7159 131.178 39.8409C131.246 39.9621 131.34 40.0473 131.462 40.0966C131.587 40.1458 131.731 40.1705 131.893 40.1705C132.007 40.1705 132.121 40.161 132.234 40.142C132.348 40.1193 132.435 40.1023 132.496 40.0909L132.876 41.892C132.755 41.9299 132.585 41.9735 132.365 42.0227C132.145 42.0758 131.878 42.108 131.564 42.1193C130.981 42.142 130.469 42.0644 130.03 41.8864C129.594 41.7083 129.255 41.4318 129.013 41.0568C128.77 40.6818 128.651 40.2083 128.655 39.6364V31.1818ZM138.178 42.1705C137.28 42.1705 136.507 41.9886 135.859 41.625C135.215 41.2576 134.719 40.7386 134.371 40.0682C134.022 39.3939 133.848 38.5966 133.848 37.6761C133.848 36.7784 134.022 35.9905 134.371 35.3125C134.719 34.6345 135.21 34.1061 135.842 33.7273C136.479 33.3485 137.225 33.1591 138.081 33.1591C138.657 33.1591 139.193 33.2519 139.689 33.4375C140.189 33.6193 140.625 33.8939 140.996 34.2614C141.371 34.6288 141.662 35.0909 141.871 35.6477C142.079 36.2008 142.183 36.8485 142.183 37.5909V38.2557H134.814V36.7557H139.905C139.905 36.4072 139.829 36.0985 139.678 35.8295C139.526 35.5606 139.316 35.3504 139.047 35.1989C138.782 35.0436 138.473 34.9659 138.121 34.9659C137.753 34.9659 137.428 35.0511 137.143 35.2216C136.863 35.3883 136.643 35.6136 136.484 35.8977C136.325 36.178 136.244 36.4905 136.24 36.8352V38.2614C136.24 38.6932 136.32 39.0663 136.479 39.3807C136.642 39.6951 136.871 39.9375 137.166 40.108C137.462 40.2784 137.812 40.3636 138.217 40.3636C138.486 40.3636 138.732 40.3258 138.956 40.25C139.179 40.1742 139.371 40.0606 139.53 39.9091C139.689 39.7576 139.81 39.572 139.893 39.3523L142.132 39.5C142.018 40.0379 141.786 40.5076 141.433 40.9091C141.085 41.3068 140.634 41.6174 140.081 41.8409C139.532 42.0606 138.897 42.1705 138.178 42.1705ZM143.763 42V33.2727H146.07V34.8125H146.172C146.354 34.3011 146.657 33.8977 147.081 33.6023C147.505 33.3068 148.013 33.1591 148.604 33.1591C149.202 33.1591 149.712 33.3087 150.132 33.608C150.553 33.9034 150.833 34.3049 150.973 34.8125H151.064C151.242 34.3125 151.564 33.9129 152.03 33.6136C152.5 33.3106 153.054 33.1591 153.695 33.1591C154.509 33.1591 155.17 33.4186 155.678 33.9375C156.189 34.4527 156.445 35.1837 156.445 36.1307V42H154.03V36.608C154.03 36.1231 153.901 35.7595 153.643 35.517C153.386 35.2746 153.064 35.1534 152.678 35.1534C152.238 35.1534 151.895 35.2936 151.649 35.5739C151.403 35.8504 151.28 36.2159 151.28 36.6705V42H148.933V36.5568C148.933 36.1288 148.81 35.7879 148.564 35.5341C148.321 35.2803 148.001 35.1534 147.604 35.1534C147.335 35.1534 147.092 35.2216 146.876 35.358C146.664 35.4905 146.496 35.678 146.371 35.9205C146.246 36.1591 146.183 36.4394 146.183 36.7614V42H143.763ZM158.357 42V33.2727H160.777V42H158.357ZM159.572 32.1477C159.213 32.1477 158.904 32.0284 158.646 31.7898C158.393 31.5473 158.266 31.2576 158.266 30.9205C158.266 30.5871 158.393 30.3011 158.646 30.0625C158.904 29.8201 159.213 29.6989 159.572 29.6989C159.932 29.6989 160.239 29.8201 160.493 30.0625C160.75 30.3011 160.879 30.5871 160.879 30.9205C160.879 31.2576 160.75 31.5473 160.493 31.7898C160.239 32.0284 159.932 32.1477 159.572 32.1477Z" fill="#9A1B30"/>
</svg>
